<?xml version="1.0" encoding="UTF-8" standalone="no"?>
<!-- Generated by graphviz version 2.36.0 (20140111.2315)
 -->

<!-- Title: Ironic states Pages: 1 -->

<svg
   xmlns:dc="http://purl.org/dc/elements/1.1/"
   xmlns:cc="http://creativecommons.org/ns#"
   xmlns:rdf="http://www.w3.org/1999/02/22-rdf-syntax-ns#"
   xmlns:svg="http://www.w3.org/2000/svg"
   xmlns="http://www.w3.org/2000/svg"
   xmlns:sodipodi="http://sodipodi.sourceforge.net/DTD/sodipodi-0.dtd"
   xmlns:inkscape="http://www.inkscape.org/namespaces/inkscape"
   width="1420"
   height="600.75"
   viewBox="0 0 1136 480.17004"
   id="svg200373"
   version="1.1"
   inkscape:version="0.91 r13725"
   sodipodi:docname="states.svg">
  <metadata
     id="metadata200863">
    <rdf:RDF>
      <cc:Work
         rdf:about="">
        <dc:format>image/svg+xml</dc:format>
        <dc:type
           rdf:resource="http://purl.org/dc/dcmitype/StillImage" />
        <dc:title></dc:title>
      </cc:Work>
    </rdf:RDF>
  </metadata>
  <defs
     id="defs200861" />
  <sodipodi:namedview
     pagecolor="#ffffff"
     bordercolor="#666666"
     borderopacity="1"
     objecttolerance="10"
     gridtolerance="10"
     guidetolerance="10"
     inkscape:pageopacity="0"
     inkscape:pageshadow="2"
     inkscape:window-width="1920"
     inkscape:window-height="981"
     id="namedview200859"
     showgrid="false"
     units="px"
     inkscape:zoom="1.0728538"
     inkscape:cx="779.2301"
     inkscape:cy="314.375"
     inkscape:window-x="0"
     inkscape:window-y="28"
     inkscape:window-maximized="1"
     inkscape:current-layer="svg200373" />
  <g
     class="node"
     id="node1"
     transform="translate(4,476.15)">
    <title
       id="title200381">enroll</title>
    <ellipse
       style="fill:none;stroke:#000000;stroke-width:1.70000005"
       id="ellipse200383"
       ry="18"
       rx="27"
       cy="-187.55"
       cx="27" />
    <text
       style="font-size:11px;font-family:Times, serif;text-anchor:middle"
       id="text200385"
       font-size="11.00"
       y="-184.75"
       x="27">enroll</text>
  </g>
  <g
     class="node"
     id="node2"
     transform="translate(4,476.15)">
    <title
       id="title200388">verifying</title>
    <ellipse
       style="fill:none;stroke:#000000"
       id="ellipse200390"
       ry="18"
       rx="33.8507"
       cy="-187.55"
       cx="210" />
    <text
       style="font-size:11px;font-family:Times, serif;text-anchor:middle;fill:#808080"
       id="text200392"
       font-size="11.00"
       y="-184.75"
       x="210">verifying</text>
  </g>
  <g
     class="edge"
     id="edge1"
     transform="translate(4,476.15)">
    <title
       id="title200395">enroll-&gt;verifying</title>
    <path
       style="fill:none;stroke:#000000"
       inkscape:connector-curvature="0"
       id="path200397"
       d="m 54.319,-187.55 c 29.2332,0 76.874,0 111.57,0" />
    <polygon
       style="fill:#000000;stroke:#000000"
       id="polygon200399"
       points="166.207,-184.05 166.207,-191.05 166.207,-191.05 176.207,-187.55 " />
    <text
       style="font-size:12px;font-family:Times, serif;text-anchor:middle"
       id="text200401"
       font-size="12.00"
       y="-190.95"
       x="115">manage (via API)</text>
  </g>
  <g
     class="edge"
     id="edge13"
     transform="translate(4,476.15)">
    <title
       id="title200404">verifying-&gt;enroll</title>
    <path
       style="fill:none;stroke:#000000"
       inkscape:connector-curvature="0"
       id="path200406"
       d="m 182.674,-176.984 c -7.812,2.643 -16.475,5.103 -24.674,6.434 -37.729,6.122 -48.425,7.006 -86,0 -4.2567,-0.794 -8.632,-1.985 -12.8954,-3.375" />
    <polygon
       style="fill:#000000;stroke:#000000"
       id="polygon200408"
       points="60.0622,-177.301 57.6647,-170.725 57.6647,-170.725 49.4683,-177.438 " />
    <text
       style="font-size:12px;font-family:Times, serif;text-anchor:middle;fill:#808080"
       id="text200410"
       font-size="12.00"
       y="-173.95"
       x="115">fail</text>
  </g>
  <g
     class="node"
     id="node3"
     transform="translate(4,476.15)">
    <title
       id="title200413">manageable</title>
    <ellipse
       style="fill:none;stroke:#000000;stroke-width:1.70000005"
       id="ellipse200415"
       ry="18"
       rx="42.1875"
       cy="-187.55"
       cx="346" />
    <text
       style="font-size:11px;font-family:Times, serif;text-anchor:middle"
       id="text200417"
       font-size="11.00"
       y="-184.75"
       x="346">manageable</text>
  </g>
  <g
     class="edge"
     id="edge12"
     transform="translate(4,476.15)">
    <title
       id="title200420">verifying-&gt;manageable</title>
    <path
       style="fill:none;stroke:#000000"
       inkscape:connector-curvature="0"
       id="path200422"
       d="m 243.78,-187.55 c 14.886,0 32.853,0 49.493,0" />
    <polygon
       style="fill:#000000;stroke:#000000"
       id="polygon200424"
       points="293.422,-184.05 293.422,-191.05 293.422,-191.05 303.422,-187.55 " />
    <text
       style="font-size:12px;font-family:Times, serif;text-anchor:middle;fill:#808080"
       id="text200426"
       font-size="12.00"
       y="-190.95"
       x="274">done</text>
  </g>
  <g
     class="node"
     id="node4"
     transform="translate(4,476.15)">
    <title
       id="title200429">cleaning</title>
    <ellipse
       style="fill:none;stroke:#000000"
       id="ellipse200431"
       ry="18"
       rx="32.4445"
       cy="-212.55"
       cx="551" />
    <text
       style="font-size:11px;font-family:Times, serif;text-anchor:middle;fill:#808080"
       id="text200433"
       font-size="11.00"
       y="-209.75"
       x="551">cleaning</text>
  </g>
  <g
     class="edge"
     id="edge2"
     transform="translate(4,476.15)">
    <title
       id="title200436">manageable-&gt;cleaning</title>
    <path
       style="fill:none;stroke:#000000"
       inkscape:connector-curvature="0"
       id="path200438"
       d="m 368.881,-202.811 c 10.675,-6.533 24.017,-13.415 37.119,-16.739 34.464,-8.744 75.019,-5.629 104.294,-1.123" />
    <polygon
       style="fill:#000000;stroke:#000000"
       id="polygon200440"
       points="510.098,-217.158 511.247,-224.063 511.247,-224.063 520.537,-218.969 " />
    <text
       style="font-size:12px;font-family:Times, serif;text-anchor:middle"
       id="text200442"
       font-size="12.00"
       y="-227.95"
       x="448">provide (via API)</text>
  </g>
  <g
     class="edge"
     id="edge3"
     transform="translate(4,476.15)">
    <title
       id="title200445">manageable-&gt;cleaning</title>
    <path
       style="fill:none;stroke:#000000"
       inkscape:connector-curvature="0"
       id="path200447"
       d="m 387.452,-191.134 c 28.679,-2.702 68.041,-6.735 102.548,-11.416 6.387,-0.866 13.138,-1.888 19.718,-2.942" />
    <polygon
       style="fill:#000000;stroke:#000000"
       id="polygon200449"
       points="510.539,-202.08 509.403,-208.987 509.403,-208.987 519.838,-207.156 " />
    <text
       style="font-size:12px;font-family:Times, serif;text-anchor:middle"
       id="text200451"
       font-size="12.00"
       y="-205.95"
       x="448">clean (via API)</text>
  </g>
  <g
     class="edge"
     id="edge26"
     transform="translate(4,476.15)">
    <title
       id="title200486">cleaning-&gt;manageable</title>
    <path
       style="fill:none;stroke:#000000"
       inkscape:connector-curvature="0"
       id="path200488"
       d="m 531.764,-198.035 c -11.31,8.052 -26.545,17.27 -41.764,21.485 -31.844,8.82 -69.099,5.54 -97.599,0.335" />
    <polygon
       style="fill:#000000;stroke:#000000"
       id="polygon200490"
       points="392.812,-179.701 391.458,-172.833 391.458,-172.833 382.324,-178.201 " />
    <text
       style="font-size:12px;font-family:Times, serif;text-anchor:middle;fill:#808080"
       id="text200492"
       font-size="12.00"
       y="-179.95"
       x="448">manage</text>
  </g>
  <g
     class="node"
     id="node7"
     transform="translate(4,476.15)">
    <title
       id="title200495">available</title>
    <ellipse
       style="fill:none;stroke:#000000;stroke-width:1.70000005"
       id="ellipse200497"
       ry="18"
       rx="34.054001"
       cy="-313.54999"
       cx="763" />
    <text
       style="font-size:11px;font-family:Times, serif;text-anchor:middle"
       id="text200499"
       font-size="11.00"
       y="-310.75"
       x="763">available</text>
  </g>
  <g
     class="edge"
     id="edge23"
     transform="translate(4,476.15)">
    <title
       id="title200502">cleaning-&gt;available</title>
    <path
       style="fill:none;stroke:#000000"
       inkscape:connector-curvature="0"
       id="path200504"
       d="m 566.869,-228.52 c 11.358,-11.31 27.938,-26.015 45.131,-35.03 35.041,-18.373 48.573,-10.169 86,-23 9.652,-3.309 19.915,-7.38 29.33,-11.348" />
    <polygon
       style="fill:#000000;stroke:#000000"
       id="polygon200506"
       points="728.971,-294.793 726.205,-301.224 726.205,-301.224 736.775,-301.959 " />
    <text
       style="font-size:12px;font-family:Times, serif;text-anchor:middle;fill:#808080"
       id="text200508"
       font-size="12.00"
       y="-289.95001"
       x="655">done</text>
  </g>
  <g
     class="node"
     id="node14"
     transform="translate(4,476.15)">
    <title
       id="title200511">clean failed</title>
    <ellipse
       style="fill:none;stroke:#000000"
       id="ellipse200513"
       ry="18"
       rx="41.4846"
       cy="-214.55"
       cx="964" />
    <text
       style="font-size:11px;font-family:Times, serif;text-anchor:middle;fill:#ff0000"
       id="text200515"
       font-size="11.00"
       y="-211.75"
       x="964">clean failed</text>
  </g>
  <g
     class="edge"
     id="edge24"
     transform="translate(4,476.15)">
    <title
       id="title200518">cleaning-&gt;clean failed</title>
    <path
       style="fill:none;stroke:#000000"
       inkscape:connector-curvature="0"
       id="path200520"
       d="m 580.467,-220.482 c 9.901,-2.413 21.131,-4.769 31.533,-6.068 128.778,-16.081 163.06,-15.731 292,-1 4.518,0.516 9.199,1.23 13.857,2.061" />
    <polygon
       style="fill:#000000;stroke:#000000"
       id="polygon200522"
       points="917.46,-222 918.803,-228.87 918.803,-228.87 927.946,-223.517 " />
    <text
       style="font-size:12px;font-family:Times, serif;text-anchor:middle;fill:#808080"
       id="text200524"
       font-size="12.00"
       y="-241.95"
       x="763">fail</text>
  </g>
  <g
     class="node"
     id="node15"
     transform="translate(4,476.15)">
    <title
       id="title200527">clean wait</title>
    <ellipse
       style="fill:none;stroke:#000000"
       id="ellipse200529"
       ry="18"
       rx="37.768902"
       cy="-201.55"
       cx="763" />
    <text
       style="font-size:11px;font-family:Times, serif;text-anchor:middle;fill:#808080"
       id="text200531"
       font-size="11.00"
       y="-198.75"
       x="763">clean wait</text>
  </g>
  <g
     class="edge"
     id="edge25"
     transform="translate(4,476.15)">
    <title
       id="title200534">cleaning-&gt;clean wait</title>
    <path
       style="fill:none;stroke:#000000"
       inkscape:connector-curvature="0"
       id="path200536"
       d="m 583.439,-210.903 c 34.84,1.825 91.395,4.787 131.514,6.889" />
    <polygon
       style="fill:#000000;stroke:#000000"
       id="polygon200538"
       points="714.862,-200.514 715.228,-207.505 715.228,-207.505 725.031,-203.486 " />
    <text
       style="font-size:12px;font-family:Times, serif;text-anchor:middle;fill:#808080"
       id="text200540"
       font-size="12.00"
       y="-212.95"
       x="655">wait</text>
  </g>
  <g
     class="node"
     id="node9"
     transform="translate(-366.84879,472.2981)">
    <title
       id="title200568">active</title>
    <ellipse
       style="fill:none;stroke:#000000;stroke-width:1.70000005"
       id="ellipse200570"
       ry="18"
       rx="27"
       cy="-410.54999"
       cx="1172" />
    <text
       style="font-size:11px;font-family:Times, serif;text-anchor:middle"
       id="text200572"
       font-size="11.00"
       y="-407.75"
       x="1172">active</text>
  </g>
  <g
     class="edge"
     id="edge7"
     transform="translate(4,476.15)">
    <title
       id="title200600">available-&gt;manageable</title>
    <path
       style="fill:none;stroke:#000000"
       inkscape:connector-curvature="0"
       id="path200602"
       d="m 728.535,-313.4 c -65.93,1.661 -215.504,12.288 -322.535,71.85 -13.864,7.715 -27.106,19.302 -37.52,29.766" />
    <polygon
       style="fill:#000000;stroke:#000000"
       id="polygon200604"
       points="365.826,-214.073 370.878,-209.227 370.878,-209.227 361.43,-204.434 " />
    <text
       style="font-size:12px;font-family:Times, serif;text-anchor:middle"
       id="text200606"
       font-size="12.00"
       y="-303.95001"
       x="551">manage (via API)</text>
  </g>
  <g
     class="node"
     id="node10"
     transform="translate(-415.81488,494.79187)">
    <title
       id="title200675">deleting</title>
    <ellipse
       style="fill:none;stroke:#000000"
       id="ellipse200677"
       ry="18"
       rx="31.0408"
       cy="-348.54999"
       cx="1512" />
    <text
       style="font-size:11px;font-family:Times, serif;text-anchor:middle;fill:#808080"
       id="text200679"
       font-size="11.00"
       y="-345.75"
       x="1512">deleting</text>
  </g>
  <g
     class="edge"
     id="edge9"
     transform="matrix(0.83142537,0,0,1.3774166,-164.52192,626.21407)">
    <title
       id="title200682">active-&gt;deleting</title>
    <path
       style="fill:none;stroke:#000000"
       inkscape:connector-curvature="0"
       id="path200684"
       d="m 1198.7,-407.281 c 50.71,6.668 167.04,23.059 263.3,44.731 4.08,0.918 8.32,1.974 12.53,3.086" />
    <polygon
       style="fill:#000000;stroke:#000000"
       id="polygon200686"
       points="1484.18,-356.807 1473.61,-356.085 1475.47,-362.834 1475.47,-362.834 " />
    <text
       style="font-size:12px;font-family:Times, serif;text-anchor:middle"
       id="text200688"
       font-size="12.00"
       y="-399.95001"
       x="1317">deleted (via API)</text>
  </g>
  <g
     class="edge"
     id="edge32"
     transform="matrix(0.5557702,0,0,0.91666694,258.2712,463.34288)">
    <title
       id="title200691">deleting-&gt;cleaning</title>
    <path
       style="fill:none;stroke:#000000"
       inkscape:connector-curvature="0"
       id="path200693"
       d="m 1503.74,-331.082 c -21.05,47.509 -86.94,175.532 -185.74,175.532 -556,0 -556,0 -556,0 -67.661,0 -85.865,-4.443 -150,-26 -10.002,-3.362 -20.388,-8.192 -29.65,-13.041" />
    <polygon
       style="fill:#000000;stroke:#000000"
       id="polygon200695"
       points="580.63,-191.542 580.63,-191.542 573.517,-199.394 583.974,-197.692 " />
    <text
       style="font-size:12px;font-family:Times, serif;text-anchor:middle;fill:#808080"
       id="text200697"
       font-size="12.00"
       y="-158.95"
       x="1065">clean</text>
  </g>
  <g
     class="edge"
     id="edge30"
     transform="translate(4,476.15)">
    <title
       id="title200788">clean failed-&gt;manageable</title>
    <path
       style="fill:none;stroke:#000000"
       inkscape:connector-curvature="0"
       id="path200790"
       d="m 939.234,-199.96 c -10.517,6.004 -23.206,12.652 -35.234,17.41 -88.014,34.814 -112.128,41.901 -206,54 -112.797,14.538 -244.832,-22.325 -310.138,-44.194" />
    <polygon
       style="fill:#000000;stroke:#000000"
       id="polygon200792"
       points="388.938,-176.074 386.682,-169.448 386.682,-169.448 378.343,-175.984 " />
    <text
       style="font-size:12px;font-family:Times, serif;text-anchor:middle"
       id="text200794"
       font-size="12.00"
       y="-131.95"
       x="655">manage (via API)</text>
  </g>
  <g
     class="edge"
     id="edge29"
     transform="translate(4,476.15)">
    <title
       id="title200797">clean wait-&gt;cleaning</title>
    <path
       style="fill:none;stroke:#000000"
       inkscape:connector-curvature="0"
       id="path200799"
       d="m 728.957,-193.498 c -30.575,6.228 -77.172,12.61 -116.957,4.948 -9.045,-1.742 -18.459,-4.835 -27.076,-8.233" />
    <polygon
       style="fill:#000000;stroke:#000000"
       id="polygon200801"
       points="586.172,-200.055 583.465,-193.6 583.465,-193.6 575.596,-200.694 " />
    <text
       style="font-size:12px;font-family:Times, serif;text-anchor:middle;fill:#808080"
       id="text200803"
       font-size="12.00"
       y="-191.95"
       x="655">resume</text>
  </g>
  <g
     class="edge"
     id="edge27"
     transform="translate(4,476.15)">
    <title
       id="title200806">clean wait-&gt;clean failed</title>
    <path
       style="fill:none;stroke:#000000"
       inkscape:connector-curvature="0"
       id="path200808"
       d="m 800.964,-203.965 c 31.374,-2.049 76.698,-5.01 111.437,-7.28" />
    <polygon
       style="fill:#000000;stroke:#000000"
       id="polygon200810"
       points="913.065,-207.78 912.609,-214.765 912.609,-214.765 922.815,-211.925 " />
    <text
       style="font-size:12px;font-family:Times, serif;text-anchor:middle;fill:#808080"
       id="text200812"
       font-size="12.00"
       y="-213.95"
       x="866">fail</text>
  </g>
  <polygon
     points="363.439,-212.432 355.586,-205.32 357.29,-215.777 363.439,-212.432 "
     id="polygon200846"
     style="fill:#000000;stroke:#000000"
     transform="translate(4,476.15)" />
</svg>
